							<svg class="svgg" enable-background="new 0 0 54.981 54.981" version="1.1" viewBox="0 0 54.981 54.981" xml:space="preserve" xmlns="http://www.w3.org/2000/svg">
									<path d="M43.992,52H8.72c-4.619,0-8.364-3.745-8.364-8.364V8.364C0.356,3.745,4.101,0,8.72,0h35.272    c4.619,0,8.364,3.745,8.364,8.364v35.272C52.356,48.255,48.611,52,43.992,52z" fill="#3ABCA7"/>
									<path d="m44.356 14h-18c-0.552 0-1-0.447-1-1s0.448-1 1-1h18c0.552 0 1 0.447 1 1s-0.448 1-1 1z" fill="#fff"/>
									<path d="m44.356 28h-18c-0.552 0-1-0.447-1-1s0.448-1 1-1h18c0.552 0 1 0.447 1 1s-0.448 1-1 1z" fill="#fff"/>
									<path d="m44.356 42h-18c-0.552 0-1-0.447-1-1s0.448-1 1-1h18c0.552 0 1 0.447 1 1s-0.448 1-1 1z" fill="#fff"/>
									<path d="m12.427 17c-0.209 0-0.42-0.065-0.6-0.2l-4.571-3.429c-0.442-0.331-0.531-0.958-0.2-1.399s0.958-0.531 1.4-0.2l3.822 2.866 6.248-7.288c0.359-0.42 0.991-0.468 1.41-0.108 0.419 0.359 0.468 0.99 0.108 1.409l-6.857 8c-0.198 0.23-0.478 0.349-0.76 0.349z" fill="#fff"/>
									<path d="m12.427 31c-0.209 0-0.42-0.065-0.6-0.2l-4.571-3.429c-0.442-0.331-0.531-0.958-0.2-1.399s0.958-0.531 1.4-0.2l3.822 2.866 6.248-7.288c0.359-0.42 0.991-0.468 1.41-0.108 0.419 0.359 0.468 0.99 0.108 1.409l-6.857 8c-0.198 0.23-0.478 0.349-0.76 0.349z" fill="#fff"/>
									<path d="m12.427 45.999c-0.209 0-0.42-0.065-0.6-0.2l-4.571-3.429c-0.442-0.331-0.531-0.958-0.2-1.399s0.958-0.531 1.4-0.2l3.822 2.866 6.248-7.287c0.359-0.421 0.991-0.469 1.41-0.108 0.419 0.359 0.468 0.99 0.108 1.409l-6.857 7.999c-0.198 0.23-0.478 0.349-0.76 0.349z" fill="#fff"/>
									<polygon points="33.192 45.489 33.184 45.496 31.196 52.786 35.843 48.139" fill="#EDDCC7"/>
									<path d="m52.442 31.54l-1.247-1.247c-0.775-0.775-2.032-0.775-2.807 0l-3.582 3.582 2.651 2.651 4.985-4.986z" fill="#D75A4A"/>
										<rect transform="matrix(.7071 .7071 -.7071 .7071 40.807 -16.503)" x="38.45" y="32.795" width="3.749" height="16.424" fill="#F29C21"/>
									<polygon points="38.841 51.153 38.849 51.145 35.843 48.139 31.196 52.786 31.063 53.274" fill="#D6C4B1"/>
									<path d="m50.462 39.532l3.582-3.582c0.775-0.775 0.775-2.032 0-2.807l-1.602-1.602-4.985 4.985 3.005 3.006z" fill="#A34740"/>
										<rect transform="matrix(-.7071 -.7071 .7071 -.7071 42.669 105.35)" x="41.027" y="35.623" width="4.251" height="16.424" fill="#E18C25"/>
									<path d="m30.356 54.981c-0.256 0-0.512-0.098-0.707-0.293-0.391-0.391-0.391-1.023 0-1.414l2.207-2.207c0.391-0.391 1.023-0.391 1.414 0s0.391 1.023 0 1.414l-2.207 2.207c-0.195 0.196-0.451 0.293-0.707 0.293z" fill="#5E5E5E"/>
							</svg>