<?xml version="1.0" encoding="UTF-8" standalone="no"?>
<!DOCTYPE svg PUBLIC "-//W3C//DTD SVG 1.1//EN" "http://www.w3.org/Graphics/SVG/1.1/DTD/svg11.dtd">
<svg width="100%" height="100%" viewBox="0 0 24 24" version="1.1" xmlns="http://www.w3.org/2000/svg" xmlns:xlink="http://www.w3.org/1999/xlink" xml:space="preserve" xmlns:serif="http://www.serif.com/" style="fill-rule:evenodd;clip-rule:evenodd;stroke-linejoin:round;stroke-miterlimit:1.41421;">
    <g transform="matrix(1,0,0,1,-19570.1,-12531.4)">
        <g transform="matrix(1,0,0,1,-0.548038,0)">
            <g transform="matrix(0.0585935,0,0,0.0585935,19570.6,12531.4)">
                <path d="M204.801,26.002C303.602,26.002 384,106.4 384,205.201C384,304.002 303.602,384.4 204.801,384.4C106,384.4 25.602,304.002 25.602,205.201C25.602,106.4 106,26.002 204.801,26.002ZM204.801,0.4C91.699,0.4 0,92.099 0,205.201C0,318.298 91.699,410.002 204.801,410.002C317.898,410.002 409.602,318.298 409.602,205.201C409.602,92.099 317.898,0.4 204.801,0.4ZM318.977,273.673L317.824,270.173C315.125,262.127 306.227,253.724 298.023,251.474L267.75,243.201C259.551,240.974 247.852,243.974 241.824,250.002L230.875,260.951C191.074,250.173 159.852,218.951 149.102,179.15L160.051,168.201C166.051,162.201 169.051,150.503 166.824,142.275L158.574,112.002C156.352,103.798 147.898,94.9 139.852,92.201L136.398,91.048C128.324,88.349 116.801,91.076 110.801,97.099L94.398,113.502C91.477,116.4 89.602,124.724 89.602,124.752C89.051,176.802 109.449,226.927 146.25,263.752C182.949,300.451 232.902,320.826 284.773,320.377C285.051,320.377 293.625,318.552 296.551,315.627L312.949,299.224C318.949,293.252 321.652,281.724 318.977,273.673Z" style="fill:white;fill-rule:nonzero;"/>
            </g>
        </g>
    </g>
</svg>
