<?xml version="1.0" encoding="UTF-8" standalone="no"?>
<!DOCTYPE svg PUBLIC "-//W3C//DTD SVG 1.1//EN" "http://www.w3.org/Graphics/SVG/1.1/DTD/svg11.dtd">
<svg width="100%" height="100%" viewBox="0 0 25 24" version="1.1" xmlns="http://www.w3.org/2000/svg" xmlns:xlink="http://www.w3.org/1999/xlink" xml:space="preserve" xmlns:serif="http://www.serif.com/" style="fill-rule:evenodd;clip-rule:evenodd;stroke-linejoin:round;stroke-miterlimit:1.41421;">
    <g transform="matrix(1,0,0,1,-19570.3,-12573)">
        <g transform="matrix(1,0,0,1,-0.548038,0)">
            <g transform="matrix(0.145634,0,0,0.145634,19570.9,12572.9)">
                <clipPath id="_clip1">
                    <rect x="0" y="0.207" width="165" height="165"/>
                </clipPath>
                <g clip-path="url(#_clip1)">
                    <path d="M82.398,49.297C100.762,49.297 115.703,64.239 115.703,82.606C115.703,85.254 117.855,87.403 120.504,87.403C123.156,87.403 125.305,85.254 125.305,82.606C125.305,58.946 106.055,39.696 82.398,39.696C58.738,39.696 39.488,58.946 39.488,82.606C39.488,106.262 58.738,125.512 82.395,125.512C97.586,125.512 111.793,117.356 119.465,104.227C120.801,101.938 120.031,98.996 117.742,97.661C115.453,96.325 112.516,97.094 111.176,99.383C105.219,109.578 94.188,115.911 82.395,115.911C64.027,115.911 49.086,100.969 49.086,82.606C49.086,64.239 64.031,49.297 82.398,49.297Z" style="fill:white;fill-rule:nonzero;"/>
                    <path d="M164.559,76.246C161.551,36.2 129.098,3.621 89.07,0.465C64.875,-1.441 41.207,7.258 24.129,24.336C7.051,41.414 -1.648,65.086 0.258,89.278C3.402,129.157 35.844,161.598 75.723,164.743C77.918,164.914 80.109,165 82.293,165C104.156,165 125.137,156.399 140.664,140.871C142.539,138.996 142.539,135.957 140.664,134.082C138.789,132.211 135.75,132.207 133.875,134.082C118.785,149.172 97.867,156.86 76.477,155.172C41.258,152.395 12.605,123.743 9.828,88.524C8.145,67.137 15.828,46.215 30.918,31.125C46.008,16.036 66.926,8.348 88.316,10.036C123.668,12.825 152.328,41.598 154.984,76.965C155.348,81.813 155.242,86.68 154.668,91.434C154.059,96.477 151.004,100.879 146.5,103.207C142.426,105.313 137.848,105.305 133.938,103.184C131.605,101.918 128.69,102.786 127.43,105.118C126.164,107.446 127.031,110.36 129.363,111.625C136.109,115.282 143.961,115.321 150.906,111.735C158.238,107.95 163.207,100.789 164.199,92.586C164.848,87.211 164.969,81.715 164.559,76.246Z" style="fill:white;fill-rule:nonzero;"/>
                </g>
            </g>
        </g>
    </g>
</svg>
