<?xml version="1.0" encoding="UTF-8" standalone="no"?>
<!DOCTYPE svg PUBLIC "-//W3C//DTD SVG 1.1//EN" "http://www.w3.org/Graphics/SVG/1.1/DTD/svg11.dtd">
<svg width="100%" height="100%" viewBox="0 0 41 37" version="1.1" xmlns="http://www.w3.org/2000/svg" xmlns:xlink="http://www.w3.org/1999/xlink" xml:space="preserve" xmlns:serif="http://www.serif.com/" style="fill-rule:evenodd;clip-rule:evenodd;stroke-linejoin:round;stroke-miterlimit:1.41421;">
    <g transform="matrix(1,0,0,1,-620,-4218.55)">
        <g transform="matrix(1,0,0,1,-2208,-109.51)">
            <g transform="matrix(0.102921,0,0,0.102921,2828,4328)">
                <clipPath id="_clip1">
                    <rect x="0" y="0" width="389" height="354"/>
                </clipPath>
                <g clip-path="url(#_clip1)">
                    <path d="M380.879,265.639L244.719,29.799C222.48,-9.158 166.238,-9.158 144.078,29.799L7.84,265.639C-14.402,304.6 13.281,353.002 58.16,353.002L330.078,353.002C374.961,353.002 403.121,304.119 380.879,265.639ZM194.32,300.682C182.48,300.682 172.641,290.842 172.641,279.002C172.641,267.158 182.48,257.318 194.32,257.318C206.16,257.318 216,267.158 215.52,279.56C216.078,290.842 205.68,300.682 194.32,300.682ZM214.078,160.521C213.121,177.318 212.078,194.041 211.121,210.842C210.641,216.279 210.641,221.24 210.641,226.6C210.16,235.478 203.199,242.361 194.32,242.361C185.438,242.361 178.559,235.959 178,227.08C176.559,200.92 175.039,175.24 173.598,149.08C173.121,142.201 172.641,135.24 172.078,128.361C172.078,117.002 178.48,107.639 188.879,104.682C199.281,102.201 209.598,107.158 214.078,117.002C215.598,120.439 216.078,123.881 216.078,127.881C215.598,138.842 214.559,149.721 214.078,160.521Z" style="fill:white;fill-rule:nonzero;"/>
                </g>
            </g>
        </g>
    </g>
</svg>
