<?xml version="1.0" encoding="UTF-8" standalone="no"?>
<!DOCTYPE svg PUBLIC "-//W3C//DTD SVG 1.1//EN" "http://www.w3.org/Graphics/SVG/1.1/DTD/svg11.dtd">
<svg width="100%" height="100%" viewBox="0 0 58 58" version="1.1" xmlns="http://www.w3.org/2000/svg" xmlns:xlink="http://www.w3.org/1999/xlink" xml:space="preserve" xmlns:serif="http://www.serif.com/" style="fill-rule:evenodd;clip-rule:evenodd;stroke-linejoin:round;stroke-miterlimit:1.41421;">
    <g transform="matrix(1,0,0,1,-634.816,-5179.74)">
        <g transform="matrix(0.47371,0,0,0.47371,618,5283.39)">
            <g transform="matrix(2.11099,0,0,2.11099,-2980.82,-11357.1)">
                <circle cx="1457.53" cy="5305" r="28.672" style="fill:rgb(44,224,128);"/>
            </g>
        </g>
        <g transform="matrix(0.47371,0,0,0.47371,618,5283.39)">
            <g transform="matrix(0.61874,0,0,0.61874,65.0531,-189.799)">
                <path d="M93.402,25.816C88.926,18.148 82.855,12.078 75.184,7.601C67.516,3.125 59.141,0.886 50.059,0.886C40.977,0.886 32.602,3.125 24.934,7.601C17.262,12.074 11.191,18.148 6.715,25.816C2.238,33.488 0,41.863 0,50.945C0,60.023 2.238,68.398 6.715,76.07C11.191,83.738 17.262,89.812 24.93,94.285C32.602,98.761 40.977,101 50.059,101C59.141,101 67.516,98.761 75.184,94.285C82.852,89.812 88.926,83.738 93.402,76.07C97.875,68.398 100.113,60.023 100.113,50.945C100.113,41.863 97.875,33.484 93.402,25.816ZM82.582,60.132L75.934,66.781C75.105,67.609 74.129,68.019 73,68.019C71.871,68.019 70.891,67.609 70.066,66.781L50.059,46.773L30.047,66.781C29.223,67.609 28.246,68.019 27.117,68.019C25.984,68.019 25.008,67.609 24.184,66.781L17.535,60.132C16.707,59.308 16.297,58.328 16.297,57.199C16.297,56.07 16.707,55.093 17.535,54.265L47.125,24.675C47.953,23.851 48.93,23.437 50.059,23.437C51.188,23.437 52.168,23.851 52.992,24.675L82.582,54.265C83.406,55.093 83.82,56.07 83.82,57.199C83.82,58.328 83.406,59.308 82.582,60.132Z" style="fill:white;fill-rule:nonzero;"/>
            </g>
        </g>
    </g>
</svg>
