<?xml version="1.0" encoding="UTF-8" standalone="no"?>
<!DOCTYPE svg PUBLIC "-//W3C//DTD SVG 1.1//EN" "http://www.w3.org/Graphics/SVG/1.1/DTD/svg11.dtd">
<svg width="100%" height="100%" viewBox="0 0 77 58" version="1.1" xmlns="http://www.w3.org/2000/svg" xmlns:xlink="http://www.w3.org/1999/xlink" xml:space="preserve" xmlns:serif="http://www.serif.com/" style="fill-rule:evenodd;clip-rule:evenodd;stroke-linejoin:round;stroke-miterlimit:1.41421;">
    <g transform="matrix(1,0,0,1,-982.204,-1102.3)">
        <g transform="matrix(0.278488,0,0,0.278488,465.24,1169.88)">
            <g transform="matrix(-0.675028,0,-0,0.675028,2132.81,-243.472)">
                <path d="M345.602,241.201C336.758,241.201 329.602,248.361 329.602,257.201C329.602,266.041 336.758,273.201 345.602,273.201C354.441,273.201 361.602,266.041 361.602,257.201C361.602,248.361 354.441,241.201 345.602,241.201Z" style="fill:rgb(129,85,251);fill-rule:nonzero;"/>
                <path d="M337.602,177.201C333.184,177.201 329.602,180.783 329.602,185.201C329.602,189.615 333.184,193.201 337.602,193.201C342.016,193.201 345.602,189.615 345.602,185.201C345.602,180.783 342.016,177.201 337.602,177.201Z" style="fill:rgb(129,85,251);fill-rule:nonzero;"/>
                <path d="M100.801,241.201C91.961,241.201 84.801,248.361 84.801,257.201C84.801,266.041 91.961,273.201 100.801,273.201C109.641,273.201 116.801,266.041 116.801,257.201C116.801,248.361 109.641,241.201 100.801,241.201Z" style="fill:rgb(129,85,251);fill-rule:nonzero;"/>
                <path d="M375.977,145.712L362.18,90.537C367.086,85.845 369.602,79.627 369.602,73.201C369.602,59.966 358.836,49.201 345.602,49.201L281.602,49.201L281.602,25.201C281.602,11.966 270.836,1.201 257.601,1.201L24,1.201C10.766,1.201 0,11.966 0,25.201L0,233.201C0,246.435 10.766,257.201 24,257.201L52.801,257.201C52.801,283.67 74.332,305.201 100.801,305.201C127.27,305.201 148.801,283.67 148.801,257.201L297.602,257.201C297.602,283.67 319.133,305.201 345.602,305.201C372.07,305.201 393.602,283.67 393.602,257.201C393.602,256.744 393.578,256.291 393.566,255.834C402.895,252.545 409.602,243.642 409.602,233.201L409.602,185.201C409.602,165.314 395.012,148.775 375.977,145.712ZM347.352,97.201L359.352,145.201L292.914,145.201L311.258,126.857C314.383,123.732 314.383,118.67 311.258,115.545C308.133,112.42 303.07,112.42 299.945,115.545L281.602,133.884L281.602,97.201L347.352,97.201ZM353.602,73.201C353.602,77.615 350.016,81.201 345.602,81.201L281.602,81.201L281.602,65.201L345.602,65.201C350.012,65.201 353.602,68.787 353.602,73.201ZM100.801,289.201C83.156,289.201 68.801,274.845 68.801,257.201C68.801,239.314 83.414,225.201 100.801,225.201C118.227,225.201 132.801,239.353 132.801,257.201C132.801,274.845 118.445,289.201 100.801,289.201ZM146.055,241.201C139.371,222.322 121.289,209.201 100.801,209.201C80.305,209.201 62.211,222.33 55.543,241.201L24,241.201C19.586,241.201 16,237.611 16,233.201L16,25.201C16,20.787 19.586,17.201 24,17.201L257.601,17.201C262.012,17.201 265.602,20.787 265.602,25.201L265.602,241.201L146.055,241.201ZM345.602,289.201C327.957,289.201 313.602,274.845 313.602,257.201C313.602,239.314 328.215,225.201 345.602,225.201C363.023,225.201 377.602,239.353 377.602,257.201C377.602,274.845 363.242,289.201 345.602,289.201ZM390.285,239.673C383.188,221.615 365.531,209.201 345.602,209.201C325.102,209.201 307.012,222.33 300.344,241.201L281.602,241.201L281.602,161.201L369.602,161.201C380.027,161.201 388.922,167.888 392.227,177.201L369.602,177.201C365.18,177.201 361.602,180.783 361.602,185.201C361.602,189.619 365.18,193.201 369.602,193.201L393.602,193.201L393.602,233.201C393.602,235.861 392.289,238.216 390.285,239.673Z" style="fill:rgb(129,85,251);fill-rule:nonzero;"/>
                <path d="M140.801,49.201C101.102,49.201 68.801,81.502 68.801,121.201C68.801,160.9 101.102,193.201 140.801,193.201C180.5,193.201 212.801,160.9 212.801,121.201C212.801,81.502 180.5,49.201 140.801,49.201ZM140.801,177.201C109.922,177.201 84.801,152.08 84.801,121.201C84.801,90.322 109.922,65.201 140.801,65.201C171.68,65.201 196.801,90.322 196.801,121.201C196.801,152.08 171.68,177.201 140.801,177.201Z" style="fill:rgb(129,85,251);fill-rule:nonzero;"/>
                <path d="M172.801,113.201L148.801,113.201L148.801,89.201C148.801,84.783 145.219,81.201 140.801,81.201C136.383,81.201 132.801,84.783 132.801,89.201L132.801,121.201C132.801,125.619 136.383,129.201 140.801,129.201L172.801,129.201C177.219,129.201 180.801,125.619 180.801,121.201C180.801,116.783 177.219,113.201 172.801,113.201Z" style="fill:rgb(129,85,251);fill-rule:nonzero;"/>
            </g>
        </g>
    </g>
</svg>
