<?xml version="1.0" encoding="UTF-8" standalone="no"?>
<!DOCTYPE svg PUBLIC "-//W3C//DTD SVG 1.1//EN" "http://www.w3.org/Graphics/SVG/1.1/DTD/svg11.dtd">
<svg width="100%" height="100%" viewBox="0 0 18 18" version="1.1" xmlns="http://www.w3.org/2000/svg" xmlns:xlink="http://www.w3.org/1999/xlink" xml:space="preserve" xmlns:serif="http://www.serif.com/" style="fill-rule:evenodd;clip-rule:evenodd;stroke-linejoin:round;stroke-miterlimit:1.41421;">
    <g transform="matrix(1,0,0,1,-83,-36.9776)">
        <g transform="matrix(1,0,0,6.78375,0,0)">
            <g transform="matrix(1.125,0,0,0.165837,83,5.45091)">
                <path d="M14.398,0L1.602,0C0.719,0 0,0.719 0,1.602L0,14.398C0,15.281 0.719,16 1.602,16L14.398,16C15.281,16 16,15.281 16,14.398L16,1.602C16,0.719 15.281,0 14.398,0ZM8,4.801C9.762,4.801 11.199,6.238 11.199,8C11.199,9.762 9.762,11.199 8,11.199C6.238,11.199 4.801,9.762 4.801,8C4.801,6.238 6.238,4.801 8,4.801ZM2,14.398C1.762,14.398 1.602,14.238 1.602,14L1.602,7.199L3.281,7.199C3.199,7.441 3.199,7.762 3.199,8C3.199,10.641 5.359,12.801 8,12.801C10.641,12.801 12.801,10.641 12.801,8C12.801,7.762 12.801,7.441 12.719,7.199L14.398,7.199L14.398,14C14.398,14.238 14.238,14.398 14,14.398L2,14.398ZM14.398,3.602C14.398,3.84 14.238,4 14,4L12.398,4C12.16,4 12,3.84 12,3.602L12,2C12,1.762 12.16,1.602 12.398,1.602L14,1.602C14.238,1.602 14.398,1.762 14.398,2L14.398,3.602Z" style="fill:rgb(129,85,251);fill-rule:nonzero;"/>
            </g>
        </g>
    </g>
</svg>
