<?xml version="1.0" encoding="UTF-8" standalone="no"?>
<!DOCTYPE svg PUBLIC "-//W3C//DTD SVG 1.1//EN" "http://www.w3.org/Graphics/SVG/1.1/DTD/svg11.dtd">
<svg width="100%" height="100%" viewBox="0 0 64 64" version="1.1" xmlns="http://www.w3.org/2000/svg" xmlns:xlink="http://www.w3.org/1999/xlink" xml:space="preserve" xmlns:serif="http://www.serif.com/" style="fill-rule:evenodd;clip-rule:evenodd;stroke-linejoin:round;stroke-miterlimit:1.41421;">
    <g transform="matrix(1,0,0,1,-734.934,-1099.16)">
        <g transform="matrix(1,0,0,6.78375,0,0)">
            <g transform="matrix(0.24219,0,0,0.0357015,734.934,162.025)">
                <g>
                    <path d="M140.34,0.065C138.363,0.065 136.512,1.037 135.395,2.671C132.125,7.432 55.277,120.002 55.277,176.94C55.277,223.842 93.438,261.998 140.34,261.998C187.242,261.998 225.402,223.842 225.402,176.94C225.402,120.002 148.559,7.432 145.285,2.671C144.168,1.037 142.316,0.065 140.34,0.065ZM140.34,249.998C100.055,249.998 67.277,217.225 67.277,176.94C67.277,131.655 123.176,43.026 140.34,16.881C157.504,43.026 213.402,131.655 213.402,176.94C213.402,217.225 180.625,249.998 140.34,249.998Z" style="fill:rgb(129,85,251);fill-rule:nonzero;"/>
                    <path d="M134.34,227.998C134.34,231.311 137.027,233.998 140.34,233.998C171.805,233.998 197.402,208.401 197.402,176.94C197.402,173.627 194.719,170.94 191.402,170.94C188.09,170.94 185.402,173.627 185.402,176.94C185.402,201.787 165.188,221.998 140.34,221.998C137.027,221.998 134.34,224.686 134.34,227.998Z" style="fill:rgb(129,85,251);fill-rule:nonzero;"/>
                    <path d="M257.988,24.366L246.328,24.366L246.328,12.705C246.328,9.393 243.641,6.705 240.328,6.705C237.012,6.705 234.328,9.393 234.328,12.705L234.328,24.366L222.668,24.366C219.352,24.366 216.668,27.053 216.668,30.366C216.668,33.678 219.352,36.366 222.668,36.366L234.328,36.366L234.328,48.026C234.328,51.338 237.012,54.026 240.328,54.026C243.641,54.026 246.328,51.338 246.328,48.026L246.328,36.366L257.988,36.366C261.301,36.366 263.988,33.678 263.988,30.366C263.988,27.053 261.301,24.366 257.988,24.366Z" style="fill:rgb(129,85,251);fill-rule:nonzero;"/>
                    <path d="M41.32,205.034L29.66,205.034L29.66,193.373C29.66,190.061 26.973,187.373 23.66,187.373C20.344,187.373 17.66,190.061 17.66,193.373L17.66,205.034L6,205.034C2.688,205.034 0,207.721 0,211.034C0,214.346 2.688,217.034 6,217.034L17.66,217.034L17.66,228.694C17.66,232.006 20.344,234.694 23.66,234.694C26.973,234.694 29.66,232.006 29.66,228.694L29.66,217.034L41.32,217.034C44.633,217.034 47.32,214.346 47.32,211.034C47.32,207.721 44.633,205.034 41.32,205.034Z" style="fill:rgb(129,85,251);fill-rule:nonzero;"/>
                </g>
            </g>
        </g>
    </g>
</svg>
