<?xml version="1.0" encoding="UTF-8" standalone="no"?>
<!DOCTYPE svg PUBLIC "-//W3C//DTD SVG 1.1//EN" "http://www.w3.org/Graphics/SVG/1.1/DTD/svg11.dtd">
<svg width="100%" height="100%" viewBox="0 0 57 69" version="1.1" xmlns="http://www.w3.org/2000/svg" xmlns:xlink="http://www.w3.org/1999/xlink" xml:space="preserve" xmlns:serif="http://www.serif.com/" style="fill-rule:evenodd;clip-rule:evenodd;stroke-linejoin:round;stroke-miterlimit:1.41421;">
    <g transform="matrix(1,0,0,1,-231.086,-1096.62)">
        <g transform="matrix(1,0,0,6.78375,0,0)">
            <g transform="matrix(0.159187,0,0,0.023466,231.086,161.639)">
                <g>
                    <path d="M338.095,298.267C338.234,301.274 337.629,304.269 336.335,306.987C335.615,308.267 333.455,312.267 324.175,312.267L311.855,312.267L311.855,202.587L324.175,202.587C333.455,202.587 335.615,206.507 336.335,207.867C337.629,210.585 338.234,213.58 338.095,216.587L338.095,298.267ZM295.855,202.267L295.855,327.227L289.535,327.227L288.575,327.227L287.935,327.227L282.335,327.227L282.335,185.947L296.095,185.947L295.855,202.267ZM189.615,414.747L154.975,414.747C154.549,414.778 154.121,414.778 153.695,414.747L153.695,391.387C154.142,391.019 154.719,390.846 155.295,390.907L191.375,390.907L191.375,413.627C191.02,414.278 190.355,414.701 189.615,414.747ZM42.335,201.867L42.335,312.107L29.935,312.107C20.655,312.107 18.495,308.187 17.775,306.827C16.48,304.109 15.876,301.114 16.015,298.107L16.015,216.507C15.838,213.48 16.415,210.456 17.695,207.707C18.415,206.427 20.575,202.427 29.855,202.427L42.335,201.867ZM71.775,185.867L71.775,327.227L58.335,327.227L58.335,312.747L58.335,202.267C58.416,201.335 58.416,200.399 58.335,199.467L58.335,186.267L71.775,185.867ZM334.335,187.787L334.335,150.667C334.335,68.027 263.775,0.667 177.055,0.667C90.335,0.667 19.775,68.027 19.775,150.667L19.775,187.787C12.967,189.456 7.167,193.894 3.775,200.027C1.137,205.11 -0.156,210.783 0.015,216.507L0.015,298.187C-0.142,303.884 1.151,309.528 3.775,314.587C9.133,323.787 19.33,329.057 29.935,328.107L42.335,328.107C42.843,336.567 49.86,343.162 58.335,343.147L72.415,343.147C81.251,343.147 88.415,335.984 88.415,327.147L88.415,185.947C88.415,177.11 81.251,169.947 72.415,169.947L57.935,169.947C49.098,169.947 41.935,177.11 41.935,185.947L41.935,186.587L35.455,186.587L35.455,150.667C35.455,76.747 98.815,16.667 176.735,16.667C254.655,16.667 318.015,76.747 318.015,150.667L318.015,186.587L311.535,186.587L311.535,185.947C311.535,177.11 304.372,169.947 295.535,169.947L282.095,169.947C273.259,169.947 266.095,177.11 266.095,185.947L266.095,327.707C266.287,335.716 272.372,342.348 280.335,343.227C278.809,353.402 274.299,362.896 267.375,370.507C254.815,384.427 234.335,392.427 206.735,394.507L206.735,390.987C206.303,381.769 198.516,374.625 189.295,374.987L154.975,374.987C145.754,374.625 137.967,381.769 137.535,390.987L137.535,414.987C137.967,424.205 145.754,431.349 154.975,430.987L189.615,430.987C198.836,431.349 206.623,424.205 207.055,414.987L207.055,410.507C239.455,408.347 263.935,398.587 279.535,381.387C289.256,370.803 295.387,357.42 297.055,343.147C305.129,342.678 311.583,336.258 312.095,328.187L324.495,328.187C335.1,329.137 345.296,323.867 350.655,314.667C353.279,309.608 354.573,303.964 354.415,298.267L354.415,216.507C354.568,210.654 353.189,204.863 350.415,199.707C346.938,193.678 341.115,189.361 334.335,187.787Z" style="fill:rgb(129,85,251);fill-rule:nonzero;"/>
                </g>
            </g>
        </g>
    </g>
</svg>
