<?xml version="1.0" encoding="UTF-8" standalone="no"?>
<!DOCTYPE svg PUBLIC "-//W3C//DTD SVG 1.1//EN" "http://www.w3.org/Graphics/SVG/1.1/DTD/svg11.dtd">
<svg width="100%" height="100%" viewBox="0 0 18 18" version="1.1" xmlns="http://www.w3.org/2000/svg" xmlns:xlink="http://www.w3.org/1999/xlink" xml:space="preserve" xmlns:serif="http://www.serif.com/" style="fill-rule:evenodd;clip-rule:evenodd;stroke-linejoin:round;stroke-miterlimit:1.41421;">
    <g transform="matrix(1,0,0,1,-139,-36.9776)">
        <g transform="matrix(1,0,0,6.78375,0,0)">
            <g transform="matrix(0.239365,0,0,0.035285,139,5.42268)">
                <path d="M71.199,0.8L4,0.8C1.789,0.8 0,2.593 0,4.8L0,71.999C0,74.21 1.789,75.999 4,75.999L71.199,75.999C73.41,75.999 75.199,74.21 75.199,71.999L75.199,4.8C75.199,2.593 73.41,0.8 71.199,0.8ZM59.895,43.155C61.945,45.155 64.113,47.038 65.953,49.249C66.766,50.226 67.535,51.234 68.121,52.366C68.953,53.988 68.199,55.765 66.75,55.863L57.746,55.859C55.422,56.05 53.57,55.113 52.008,53.523C50.766,52.257 49.605,50.902 48.406,49.593C47.918,49.054 47.402,48.55 46.789,48.148C45.559,47.351 44.492,47.593 43.789,48.874C43.074,50.179 42.906,51.628 42.84,53.081C42.742,55.202 42.102,55.757 39.973,55.859C35.418,56.07 31.098,55.378 27.086,53.085C23.543,51.062 20.801,48.202 18.414,44.968C13.762,38.663 10.199,31.741 7,24.62C6.277,23.015 6.805,22.155 8.57,22.124C11.512,22.066 14.453,22.073 17.391,22.12C18.586,22.14 19.379,22.823 19.836,23.952C21.426,27.859 23.371,31.577 25.812,35.027C26.465,35.945 27.129,36.859 28.07,37.507C29.113,38.226 29.91,37.991 30.402,36.823C30.715,36.081 30.852,35.292 30.918,34.499C31.152,31.784 31.18,29.066 30.777,26.359C30.527,24.667 29.57,23.573 27.883,23.253C27.023,23.089 27.152,22.773 27.566,22.28C28.293,21.433 28.977,20.905 30.332,20.905L40.508,20.905C42.113,21.218 42.473,21.941 42.691,23.554L42.699,34.863C42.68,35.488 43.012,37.339 44.133,37.749C45.031,38.046 45.629,37.323 46.168,36.753C48.605,34.167 50.344,31.109 51.898,27.945C52.586,26.554 53.18,25.109 53.758,23.663C54.184,22.593 54.848,22.066 56.055,22.085L65.852,22.097C66.141,22.097 66.438,22.097 66.723,22.144C68.371,22.429 68.824,23.14 68.312,24.753C67.512,27.28 65.945,29.39 64.418,31.503C62.781,33.765 61.039,35.948 59.414,38.222C57.93,40.304 58.047,41.351 59.895,43.155Z" style="fill:rgb(129,85,251);"/>
            </g>
        </g>
    </g>
</svg>
